# xmcd
#
# Track frame offsets: 
#        150
#        19906
#        44275
#        55752
#        62696
#        81198
#        102190
#        118284
#        135552
#        154813
#        171733
#        199165
#        217933
#        234840
#        254430
#        289652
#
# Disc length: 4576 seconds
#
# Revision: 0
# Processed by: cddbd v1.5.1PL0 Copyright (c) Steve Scherf et al.
# Submitted via: ExactAudioCopy v0.95a4
#
DISCID=e511de10
DTITLE=Der Fall Böse - Hochverrat
DYEAR=2005
DGENRE=Pop/Funk
TTITLE0=Das letzte Fest
TTITLE1=Keine Zeit
TTITLE2=Stein Schere Papier
TTITLE3=We love you
TTITLE4=Star Wars
TTITLE5=Nur ein Lied
TTITLE6=Beat im Schritt
TTITLE7=Weiter gehen
TTITLE8=Hin und weg
TTITLE9=Glaub mir nicht
TTITLE10=Oh yeah
TTITLE11=Funküberfall
TTITLE12=Wenn du gehst
TTITLE13=Gäste-Punkett
TTITLE14=Raus aus der Stadt
TTITLE15=[data]
EXTD=
EXTT0=
EXTT1=
EXTT2=
EXTT3=
EXTT4=
EXTT5=
EXTT6=
EXTT7=
EXTT8=
EXTT9=
EXTT10=
EXTT11=
EXTT12=
EXTT13=
EXTT14=
EXTT15=
PLAYORDER=
